<svg xmlns="http://www.w3.org/2000/svg"  viewBox="0 0 100 100" width="200px" height="200px"><path fill="#78a2d2" d="M50,15c-19.33,0-35,15.67-35,35s15.67,35,35,35s35-15.67,35-35S69.33,15,50,15z"/><path fill="#1f212b" d="M50,86c-19.851,0-36-16.149-36-36s16.149-36,36-36s36,16.149,36,36S69.851,86,50,86z M50,16	c-18.748,0-34,15.252-34,34s15.252,34,34,34s34-15.252,34-34S68.748,16,50,16z"/><path fill="#1f212b" d="M65.5,24.227c-0.087,0-0.175-0.022-0.255-0.07c-0.638-0.377-1.299-0.735-1.967-1.065	c-0.247-0.123-0.349-0.422-0.227-0.67c0.123-0.249,0.425-0.347,0.67-0.227c0.689,0.341,1.374,0.711,2.033,1.102	c0.237,0.141,0.316,0.447,0.176,0.685C65.837,24.139,65.671,24.227,65.5,24.227z M68.5,26.25c-0.106,0-0.213-0.034-0.304-0.103	c-0.322-0.247-0.65-0.486-0.983-0.72c-0.226-0.159-0.281-0.47-0.122-0.696c0.158-0.228,0.47-0.28,0.696-0.123	c0.345,0.241,0.683,0.49,1.017,0.745c0.22,0.167,0.261,0.481,0.094,0.701C68.799,26.182,68.65,26.25,68.5,26.25z"/><path fill="#1f212b" d="M50,81c-17.094,0-31-13.907-31-31s13.906-31,31-31c3.668,0,7.259,0.635,10.672,1.886	c0.26,0.095,0.393,0.382,0.298,0.642s-0.383,0.393-0.642,0.297C57.025,20.614,53.551,20,50,20c-16.542,0-30,13.458-30,30	s13.458,30,30,30s30-13.458,30-30c0-8.439-3.585-16.535-9.836-22.213c-0.205-0.186-0.22-0.502-0.034-0.707	c0.187-0.204,0.503-0.219,0.706-0.034C77.296,32.914,81,41.28,81,50C81,67.093,67.094,81,50,81z"/><path fill="#fefdef" d="M66.543,40.096c0.071-0.232,0.066-0.446,0.057-0.638c-0.023-0.555-0.206-0.958-1.105-0.958h-4.014 c-1.014,0-1.481,0.613-1.754,1.228c0,0-2.502,5.15-5.387,8.547c-0.935,0.983-1.411,1.225-1.917,1.225 c-0.271,0-0.957-0.595-0.957-1.495v-7.95c0-1.064-0.265-1.555-1.122-1.555h-6.938c-0.624,0-0.949,0.491-0.949,0.983 c0,1.023,0.886,1.268,1.043,4.134v5.555c0,1.349,0.065,1.328-0.441,1.328c-1.365,0-4.051-4.333-5.85-10.362 c-0.389-1.187-0.779-1.638-1.792-1.638h-4.367c-1.17,0-1.365,0.573-1.365,1.187c0,1.106,1.234,7.082,6.256,13.955 c3.642,4.983,8.439,7.858,12.687,7.858c2.573,0,2.837-0.655,2.837-1.677v-4.557c0.002-1.228,0.282-1.665,1.101-1.665 c0.584,0,1.776,0.617,4.076,3.3c2.653,3.094,3.134,4.6,4.655,4.6h4.014c0.932,0,1.296-0.391,1.317-1.15 c0.005-0.193-0.023-0.409-0.086-0.65c-0.297-0.883-1.491-3.042-3.193-5.1c-0.943-1.139-2.026-2.268-2.454-2.881 c-0.287-0.4-0.396-0.682-0.382-0.952c0.014-0.284,0.161-0.554,0.382-0.931C60.857,49.836,66.037,42.551,66.543,40.096z"/><path fill="#1f212b" d="M65.312,62h-4.015c-1.304,0-1.956-0.854-3.14-2.406c-0.488-0.64-1.095-1.435-1.896-2.368 c-2.485-2.9-3.457-3.126-3.695-3.126c-0.361,0-0.6,0-0.601,1.166v4.557c0,1.607-0.873,2.178-3.337,2.178 c-4.507,0-9.4-3.015-13.09-8.063c-4.848-6.633-6.354-12.767-6.354-14.25c0-1.394,1.015-1.687,1.865-1.687h4.367 c1.352,0,1.854,0.727,2.267,1.981c1.892,6.34,4.446,9.856,5.317,10.013c0.002-0.113,0.001-0.258,0-0.407L43,43.617 c-0.09-1.627-0.421-2.322-0.688-2.88c-0.183-0.383-0.355-0.744-0.355-1.255c0-0.719,0.508-1.482,1.449-1.482h6.938 c1.622,0,1.622,1.493,1.622,2.055v7.95c0,0.596,0.418,0.964,0.525,1.004c0.203-0.009,0.547-0.092,1.486-1.078 c2.789-3.286,5.273-8.37,5.298-8.421C59.72,38.514,60.464,38,61.481,38h4.014c1.024,0,1.564,0.483,1.605,1.437 c0.01,0.229,0.014,0.499-0.079,0.805c-0.436,2.125-4.161,7.592-5.386,9.389c-0.145,0.212-0.245,0.358-0.288,0.426l-0.02,0.033 c-0.179,0.305-0.306,0.534-0.314,0.702c-0.005,0.094,0.021,0.262,0.289,0.637c0.232,0.333,0.682,0.841,1.201,1.429 c0.395,0.446,0.826,0.935,1.231,1.424c1.757,2.125,2.977,4.354,3.281,5.26c0.084,0.317,0.118,0.583,0.112,0.822 C67.107,61.11,66.775,62,65.312,62z M52.566,53.1c0.993,0,2.451,1.137,4.455,3.476c0.818,0.954,1.436,1.763,1.931,2.412 C60.118,60.517,60.524,61,61.297,61h4.015c0.745,0,0.806-0.251,0.817-0.664c0.004-0.146-0.02-0.317-0.07-0.51 c-0.262-0.774-1.437-2.904-3.094-4.908c-0.398-0.48-0.822-0.96-1.21-1.399c-0.54-0.61-1.007-1.139-1.269-1.514 c-0.35-0.487-0.491-0.866-0.471-1.264c0.019-0.395,0.198-0.729,0.449-1.158l0.006,0.003c0.067-0.121,0.177-0.282,0.339-0.52 c3.21-4.71,4.974-7.762,5.244-9.07c0.058-0.199,0.055-0.349,0.048-0.516C66.087,39.15,66.081,39,65.495,39h-4.014 c-0.619,0-1.008,0.278-1.298,0.932c-0.11,0.228-2.57,5.262-5.462,8.667C53.732,49.639,53.137,50,52.424,50 c-0.587,0-1.457-0.838-1.457-1.995v-7.95C50.967,39,50.706,39,50.345,39h-6.938c-0.428,0-0.449,0.402-0.449,0.482 c0,0.284,0.097,0.487,0.258,0.824c0.288,0.604,0.684,1.432,0.784,3.283l0.003,5.991c0.004,0.688,0.006,0.974-0.229,1.211 C43.565,51,43.299,51,43.104,51c-2.005,0-4.802-5.45-6.374-10.72C36.369,39.179,36.099,39,35.418,39h-4.367 c-0.865,0-0.865,0.318-0.865,0.687c0,0.86,1.071,6.696,6.16,13.66C39.848,58.139,44.439,61,48.629,61 c2.337,0,2.337-0.494,2.337-1.178v-4.557C50.967,54.194,51.157,53.1,52.566,53.1z"/></svg>